<svg xmlns="http://www.w3.org/2000/svg" width="35" height="40" viewBox="0 0 35 40">
  <g id="Group_54" data-name="Group 54" transform="translate(632 -3348)">
    <rect id="Rectangle_40" data-name="Rectangle 40" width="5" height="5" transform="translate(-632 3363)" fill="#fff"/>
    <rect id="Rectangle_43" data-name="Rectangle 43" width="5" height="5" transform="translate(-627 3358)" fill="#fff"/>
    <rect id="Rectangle_44" data-name="Rectangle 44" width="5" height="5" transform="translate(-622 3353)" fill="#fff"/>
    <rect id="Rectangle_45" data-name="Rectangle 45" width="5" height="5" transform="translate(-617 3348)" fill="#fff"/>
    <rect id="Rectangle_46" data-name="Rectangle 46" width="5" height="5" transform="translate(-612 3353)" fill="#fff"/>
    <rect id="Rectangle_47" data-name="Rectangle 47" width="5" height="5" transform="translate(-607 3358)" fill="#fff"/>
    <rect id="Rectangle_48" data-name="Rectangle 48" width="5" height="5" transform="translate(-602 3363)" fill="#fff"/>
    <rect id="Rectangle_41" data-name="Rectangle 41" width="5" height="5" transform="translate(-617 3368)" fill="#fff"/>
    <rect id="Rectangle_42" data-name="Rectangle 42" width="5" height="5" transform="translate(-622 3373)" fill="#fff"/>
    <rect id="Rectangle_49" data-name="Rectangle 49" width="5" height="5" transform="translate(-627 3378)" fill="#fff"/>
    <rect id="Rectangle_50" data-name="Rectangle 50" width="5" height="5" transform="translate(-632 3383)" fill="#fff"/>
    <rect id="Rectangle_51" data-name="Rectangle 51" width="5" height="5" transform="translate(-612 3373)" fill="#fff"/>
    <rect id="Rectangle_52" data-name="Rectangle 52" width="5" height="5" transform="translate(-607 3378)" fill="#fff"/>
    <rect id="Rectangle_53" data-name="Rectangle 53" width="5" height="5" transform="translate(-602 3383)" fill="#fff"/>
  </g>
</svg>
