<svg xmlns="http://www.w3.org/2000/svg" width="64.252" height="34.544" viewBox="0 0 64.252 34.544">
  <g id="rotating-circular-arrow" transform="translate(0 -42.726)">
    <path id="Path_3379" data-name="Path 3379" d="M64.252,57.278c0-8.162-14.113-14.552-32.126-14.552S0,49.118,0,57.278c0,.572,4.558.572,4.558,0,0-6.765,11.642-12.8,27.931-12.8s27.078,6.041,27.078,12.8c0,6.711-9.872,12.3-26,12.384l2.614-3.6A1.036,1.036,0,1,0,34.715,64.6s-7.5,5.418-7.528,5.983,7.528,6.413,7.528,6.413c.2.205,1.06.5,1.467,0a1.037,1.037,0,0,0,0-1.465l-2.616-3.8C51.41,71.642,64.252,65.384,64.252,57.278Z" fill="#fff"/>
  </g>
</svg>
